<?xml version="1.0" encoding="utf-8"?>
<!-- Generator: Adobe Illustrator 16.0.4, SVG Export Plug-In . SVG Version: 6.00 Build 0)  -->
<!DOCTYPE svg PUBLIC "-//W3C//DTD SVG 1.1//EN" "http://www.w3.org/Graphics/SVG/1.1/DTD/svg11.dtd">
<svg version="1.1" id="Layer_1" xmlns="http://www.w3.org/2000/svg" xmlns:xlink="http://www.w3.org/1999/xlink" x="0px" y="0px"
	 width="18px" height="18px" viewBox="0 0 18 18" enable-background="new 0 0 18 18" xml:space="preserve">
<path fill="#8D8D8E" d="M4.361,13.547c-0.059,0.066-0.133,0.055-0.222-0.033c-0.096-0.081-0.11-0.151-0.044-0.211
	c0.059-0.066,0.133-0.055,0.221,0.033C4.405,13.418,4.42,13.488,4.361,13.547L4.361,13.547z M3.896,12.871
	c0.066,0.09,0.066,0.159,0,0.211c-0.059,0.045-0.122,0.019-0.188-0.078c-0.066-0.096-0.066-0.162,0-0.199
	C3.774,12.754,3.837,12.775,3.896,12.871L3.896,12.871z M3.221,12.207c-0.037,0.053-0.085,0.06-0.144,0.023
	c-0.074-0.037-0.1-0.082-0.077-0.133c0.022-0.037,0.07-0.045,0.144-0.023C3.217,12.111,3.243,12.156,3.221,12.207L3.221,12.207z
	 M3.564,12.584c-0.044,0.052-0.104,0.041-0.177-0.033C3.32,12.47,3.313,12.41,3.365,12.373c0.044-0.043,0.103-0.033,0.177,0.033
	C3.608,12.488,3.615,12.547,3.564,12.584L3.564,12.584z M4.992,13.824c-0.03,0.088-0.1,0.109-0.21,0.066
	c-0.125-0.03-0.173-0.086-0.144-0.166c0.03-0.082,0.1-0.107,0.21-0.078C4.966,13.684,5.014,13.742,4.992,13.824L4.992,13.824z
	 M5.689,13.879C5.689,13.96,5.63,14,5.512,14c-0.125,0.016-0.188-0.025-0.188-0.121c0-0.081,0.059-0.121,0.177-0.121
	C5.626,13.742,5.689,13.783,5.689,13.879L5.689,13.879z M6.331,13.768c0.015,0.074-0.037,0.126-0.155,0.156
	c-0.118,0.029-0.185,0-0.199-0.09c-0.015-0.088,0.037-0.143,0.155-0.166C6.25,13.654,6.316,13.688,6.331,13.768L6.331,13.768z
	 M17,3.188v10.625c0,0.878-0.312,1.629-0.936,2.252C15.441,16.688,14.69,17,13.812,17h-2.479c-0.119,0-0.209-0.004-0.271-0.012
	c-0.062-0.007-0.135-0.025-0.217-0.055c-0.08-0.029-0.14-0.083-0.176-0.16c-0.037-0.078-0.057-0.18-0.057-0.305v-2.645
	c0-0.717-0.191-1.24-0.574-1.572c0.42-0.045,0.798-0.111,1.134-0.199s0.683-0.232,1.04-0.432c0.358-0.199,0.657-0.444,0.896-0.736
	c0.24-0.291,0.436-0.679,0.587-1.162c0.151-0.483,0.228-1.038,0.228-1.666c0-0.893-0.292-1.653-0.875-2.28
	c0.273-0.671,0.244-1.424-0.088-2.258c-0.207-0.066-0.506-0.026-0.896,0.122c-0.392,0.148-0.73,0.31-1.02,0.487l-0.42,0.266
	C9.939,4.202,9.23,4.106,8.5,4.106S7.061,4.202,6.375,4.394C6.257,4.312,6.1,4.213,5.905,4.095C5.709,3.977,5.401,3.835,4.98,3.669
	S4.243,3.453,4.029,3.52C3.704,4.354,3.678,5.106,3.951,5.777c-0.583,0.627-0.875,1.387-0.875,2.28c0,0.627,0.076,1.181,0.227,1.66
	c0.151,0.48,0.345,0.867,0.581,1.162c0.236,0.296,0.533,0.543,0.891,0.742s0.705,0.344,1.04,0.432
	c0.336,0.088,0.714,0.154,1.135,0.199c-0.295,0.266-0.476,0.646-0.542,1.141c-0.155,0.073-0.321,0.129-0.498,0.166
	c-0.177,0.036-0.387,0.055-0.631,0.055s-0.485-0.079-0.725-0.238c-0.24-0.158-0.444-0.389-0.614-0.691
	c-0.14-0.236-0.319-0.428-0.537-0.576c-0.218-0.146-0.4-0.235-0.548-0.266l-0.221-0.033c-0.155,0-0.262,0.018-0.321,0.051
	s-0.077,0.075-0.055,0.127s0.055,0.104,0.1,0.154c0.044,0.053,0.092,0.097,0.144,0.133l0.077,0.057
	c0.163,0.073,0.323,0.213,0.481,0.42s0.275,0.395,0.349,0.564l0.111,0.254c0.096,0.281,0.258,0.508,0.487,0.682
	c0.229,0.173,0.476,0.283,0.742,0.332c0.266,0.048,0.522,0.073,0.769,0.077c0.248,0.004,0.452-0.009,0.614-0.038l0.255-0.045
	c0,0.28,0.001,0.66,0.005,1.141c0.004,0.479,0.005,0.73,0.005,0.752c0,0.162-0.041,0.286-0.122,0.371
	c-0.081,0.084-0.162,0.133-0.244,0.144C5.951,16.994,5.829,17,5.667,17H3.188c-0.878,0-1.629-0.312-2.252-0.936
	C0.312,15.441,0,14.69,0,13.812V3.188C0,2.31,0.312,1.559,0.935,0.935S2.31,0,3.188,0h10.625c0.878,0,1.629,0.312,2.252,0.935
	C16.688,1.559,17,2.31,17,3.188L17,3.188z"/>
</svg>
