<?xml version="1.0" encoding="utf-8"?>
<!DOCTYPE svg PUBLIC "-//W3C//DTD SVG 1.1//EN" "http://www.w3.org/Graphics/SVG/1.1/DTD/svg11.dtd">
<svg version="1.1" xmlns="http://www.w3.org/2000/svg" xmlns:xlink="http://www.w3.org/1999/xlink" width="18" height="18" viewBox="0 0 576 576">
<path class="svg-icon svg-icon-twitter" fill="#818285" d="M139.541667,433.5 C137.65325,435.625 135.291667,435.270833 132.458333,432.4375 C129.388417,429.84075 128.916667,427.59675 131.041667,425.708333 C132.930083,423.583333 135.291667,423.9375 138.125,426.770833 C140.958333,429.367583 141.430083,431.611583 139.541667,433.5 L139.541667,433.5 Z M124.666667,411.895833 C126.791667,414.729167 126.791667,416.97175 124.666667,418.625 C122.77825,420.041667 120.770833,419.21575 118.645833,416.145833 C116.520833,413.075917 116.520833,410.950917 118.645833,409.770833 C120.770833,408.117583 122.77825,408.825917 124.666667,411.895833 L124.666667,411.895833 Z M103.0625,390.645833 C101.882417,392.299083 100.34675,392.53425 98.4583333,391.354167 C96.09675,390.174083 95.2708333,388.757417 95.9791667,387.104167 C96.6875,385.924083 98.22175,385.6875 100.583333,386.395833 C102.944917,387.575917 103.770833,388.992583 103.0625,390.645833 L103.0625,390.645833 Z M114.041667,402.6875 C112.625,404.34075 110.736583,403.986583 108.375,401.625 C106.25,399.02825 106.013417,397.138417 107.666667,395.958333 C109.083333,394.541667 110.97175,394.895833 113.333333,397.020833 C115.458333,399.617583 115.694917,401.507417 114.041667,402.6875 L114.041667,402.6875 Z M159.729167,442.354167 C158.78425,445.1875 156.541667,445.895833 153,444.479167 C148.986583,443.53425 147.450917,441.763417 148.395833,439.166667 C149.34075,436.569917 151.583333,435.742583 155.125,436.6875 C158.90325,437.867583 160.4375,439.757417 159.729167,442.354167 L159.729167,442.354167 Z M182.041667,444.125 C182.041667,446.72175 180.15325,448.020833 176.375,448.020833 C172.361583,448.492583 170.354167,447.194917 170.354167,444.125 C170.354167,441.52825 172.242583,440.229167 176.020833,440.229167 C180.03425,439.757417 182.041667,441.055083 182.041667,444.125 L182.041667,444.125 Z M202.583333,440.583333 C203.055083,442.944917 201.40325,444.59675 197.625,445.541667 C193.84675,446.486583 191.72175,445.541667 191.25,442.708333 C190.77825,439.875 192.430083,438.104167 196.208333,437.395833 C199.986583,436.924083 202.111583,437.986583 202.583333,440.583333 L202.583333,440.583333 Z M544,102 L544,442 C544,470.09675 534.023833,494.122 514.072917,514.072917 C494.122,534.023833 470.09675,544 442,544 L362.666667,544 C358.888417,544 355.997,543.882417 353.989583,543.645833 C351.982167,543.40925 349.680083,542.819917 347.083333,541.875 C344.486583,540.930083 342.59675,539.21875 341.416667,536.739583 C340.236583,534.260417 339.645833,531.013417 339.645833,527 L339.645833,442.354167 C339.645833,419.450917 333.507417,402.6875 321.229167,392.0625 C334.6875,390.645833 346.788667,388.520833 357.53125,385.6875 C368.273833,382.854167 379.372,378.25 390.822917,371.875 C402.273833,365.5 411.836333,357.648833 419.510417,348.322917 C427.1845,338.997 433.4405,326.601167 438.28125,311.135417 C443.122,295.669667 445.541667,277.90325 445.541667,257.833333 C445.541667,229.263417 436.21575,204.944917 417.5625,184.875 C426.299083,163.388417 425.354167,139.305083 414.729167,112.625 C408.117583,110.5 398.555083,111.799083 386.041667,116.520833 C373.52825,121.242583 362.666667,126.4375 353.458333,132.104167 L340,140.604167 C318.041667,134.46575 295.375,131.395833 272,131.395833 C248.625,131.395833 225.958333,134.46575 204,140.604167 C200.22175,138.007417 195.205333,134.819917 188.947917,131.041667 C182.6905,127.263417 172.833333,122.71875 159.375,117.40625 C145.916667,112.09375 135.763417,110.5 128.916667,112.625 C118.52825,139.305083 117.700917,163.388417 126.4375,184.875 C107.78425,204.944917 98.4583333,229.263417 98.4583333,257.833333 C98.4583333,277.90325 100.878,295.611583 105.71875,310.958333 C110.5595,326.305083 116.757417,338.700917 124.3125,348.145833 C131.867583,357.59075 141.372,365.5 152.822917,371.875 C164.273833,378.25 175.372,382.854167 186.114583,385.6875 C196.857167,388.520833 208.958333,390.645833 222.416667,392.0625 C212.97175,400.5625 207.1875,412.72175 205.0625,428.541667 C200.104167,430.90325 194.791667,432.674083 189.125,433.854167 C183.458333,435.03425 176.729167,435.625 168.9375,435.625 C161.145833,435.625 153.413667,433.086333 145.739583,428.010417 C138.0655,422.9345 131.513417,415.555083 126.083333,405.875 C121.59675,398.319917 115.872,392.180083 108.90625,387.458333 C101.9405,382.736583 96.09675,379.90325 91.375,378.958333 L84.2916667,377.895833 C79.3333333,377.895833 75.90925,378.427083 74.0208333,379.489583 C72.1324167,380.552083 71.5416667,381.90925 72.25,383.5625 C72.9583333,385.21575 74.0208333,386.867583 75.4375,388.520833 C76.8541667,390.174083 78.3884167,391.59075 80.0416667,392.770833 L82.5208333,394.541667 C87.71575,396.90325 92.8511667,401.388417 97.9270833,408 C103.003,414.611583 106.72175,420.632417 109.083333,426.0625 L112.625,434.208333 C115.694917,443.180083 120.888417,450.4405 128.208333,455.989583 C135.52825,461.538667 143.4375,465.080333 151.9375,466.614583 C160.4375,468.148833 168.642833,468.976167 176.552083,469.09375 C184.461333,469.211333 191.013417,468.799083 196.208333,467.854167 L204.354167,466.4375 C204.354167,475.40925 204.413667,487.569917 204.53125,502.916667 C204.648833,518.263417 204.708333,526.291667 204.708333,527 C204.708333,532.194917 203.40925,536.148833 200.8125,538.864583 C198.21575,541.580333 195.617583,543.114583 193.020833,543.46875 C190.424083,543.822917 186.52825,544 181.333333,544 L102,544 C73.90325,544 49.878,534.023833 29.9270833,514.072917 C9.97616667,494.122 0,470.09675 0,442 L0,102 C0,73.90325 9.97616667,49.878 29.9270833,29.9270833 C49.878,9.97616667 73.90325,0 102,0 L442,0 C470.09675,0 494.122,9.97616667 514.072917,29.9270833 C534.023833,49.878 544,73.90325 544,102 L544,102 Z"></path>
</svg>
