<?xml version="1.0" encoding="utf-8"?>
<!-- Generator: Adobe Illustrator 16.0.4, SVG Export Plug-In . SVG Version: 6.00 Build 0)  -->
<!DOCTYPE svg PUBLIC "-//W3C//DTD SVG 1.1//EN" "http://www.w3.org/Graphics/SVG/1.1/DTD/svg11.dtd">
<svg version="1.1" id="Layer_1" xmlns="http://www.w3.org/2000/svg" xmlns:xlink="http://www.w3.org/1999/xlink" x="0px" y="0px"
	 width="18px" height="18px" viewBox="0 0 18 18" enable-background="new 0 0 18 18" xml:space="preserve">
<path fill="#8D8D8E" d="M16.066,0.934C15.441,0.31,14.689,0,13.812,0H3.188C2.311,0,1.558,0.31,0.934,0.934
	C0.31,1.559,0,2.311,0,3.188v10.625c0,0.877,0.31,1.629,0.934,2.254C1.558,16.689,2.311,17,3.188,17h10.625
	c0.877,0,1.629-0.311,2.254-0.934C16.689,15.441,17,14.693,17,13.812V3.188C17,2.311,16.689,1.559,16.066,0.934L16.066,0.934z
	 M6,10.688H5V3.562h1V10.688L6,10.688z M8,13.344H7V5h1V13.344L8,13.344z M10,13.406H9V5h1V13.406L10,13.406z M12,10.344h-1V5h1
	V10.344L12,10.344z"/>
</svg>
