<?xml version="1.0" encoding="utf-8"?>
<!DOCTYPE svg PUBLIC "-//W3C//DTD SVG 1.1//EN" "http://www.w3.org/Graphics/SVG/1.1/DTD/svg11.dtd">
<svg version="1.1" xmlns="http://www.w3.org/2000/svg" xmlns:xlink="http://www.w3.org/1999/xlink" width="18" height="18" viewBox="0 0 576 576">
<path class="svg-icon svg-icon-twitter" fill="#818285" d="M514.108333,29.8916667 C494.133333,9.91666667 470.05,0 442,0 L102,0 C73.95,0 49.8666667,9.91666667 29.8916667,29.8916667 C9.91666667,49.8666667 0,73.95 0,102 L0,442 C0,470.05 9.91666667,494.133333 29.8916667,514.108333 C49.8666667,534.083333 73.95,544 102,544 L442,544 C470.05,544 494.133333,534.083333 514.108333,514.108333 C534.083333,494.133333 544,470.191667 544,442 L544,102 C544,73.95 534.083333,49.8666667 514.108333,29.8916667 L514.108333,29.8916667 Z M192,342 L160,342 L160,114 L192,114 L192,342 L192,342 Z M256,427 L224,427 L224,160 L256,160 L256,427 L256,427 Z M320,429 L288,429 L288,160 L320,160 L320,429 L320,429 Z M384,331 L352,331 L352,160 L384,160 L384,331 L384,331 Z"></path>
</svg>
