<?xml version="1.0" encoding="utf-8"?>
<!-- Generator: Adobe Illustrator 16.0.4, SVG Export Plug-In . SVG Version: 6.00 Build 0)  -->
<!DOCTYPE svg PUBLIC "-//W3C//DTD SVG 1.1//EN" "http://www.w3.org/Graphics/SVG/1.1/DTD/svg11.dtd">
<svg version="1.1" id="Layer_1" xmlns="http://www.w3.org/2000/svg" xmlns:xlink="http://www.w3.org/1999/xlink" x="0px" y="0px"
	 width="34.883px" height="26px" viewBox="8.206 4.223 34.883 26" enable-background="new 8.206 4.223 34.883 26"
	 xml:space="preserve">
<g>
	<path fill="#FFFFFF" d="M26.219,13.526l-15.977,0.321c-0.039-0.121-0.039-0.241-0.039-0.321c0-5.151,7.19-9.303,16.016-9.303
		s16.016,4.153,16.016,9.303H26.219z"/>
	<g>
		<g>
			<path fill="#FFFFFF" d="M8.316,19.139c2.038,0.614,3.16-0.7,3.979-1.66c0.598-0.7,0.996-1.126,1.484-1.126
				c0.502,0,1.478,0.438,3.256,2.523l0.064,0.074l0.08,0.054c2.677,1.822,4.543,0.167,5.906-1.042
				c0.885-0.785,1.649-1.462,2.497-1.395c0.745,0.062,1.629,0.712,2.624,1.935l0.051,0.062l0.064,0.052
				c2.424,1.903,4.362,0.265,5.775-0.932c0.941-0.796,1.829-1.549,2.728-1.42c0.817,0.117,1.745,0.957,2.761,2.498l0.053,0.077
				l0.07,0.063c0.496,0.444,1.081,0.652,1.691,0.596c0.637-0.056,1.256-0.41,1.689-0.971l-1.153-0.898
				c-0.188,0.242-0.432,0.393-0.667,0.415c-0.199,0.017-0.394-0.062-0.582-0.229l0.122,0.141c-1.293-1.957-2.492-2.955-3.775-3.14
				c-1.547-0.222-2.786,0.827-3.879,1.751c-1.558,1.319-2.509,2.011-3.93,0.896l0.117,0.112c-1.274-1.564-2.466-2.371-3.641-2.466
				c-1.468-0.12-2.592,0.877-3.584,1.757c-1.518,1.346-2.458,2.054-4.114,0.927l0.145,0.13c-1.791-2.098-3.138-3.033-4.368-3.033
				c-1.197,0-1.94,0.869-2.597,1.637c-0.844,0.989-1.374,1.532-2.446,1.211L8.316,19.139z"/>
		</g>
		<path fill="#FFFFFF" d="M9.804,24.07c10.423,0,30.592-0.121,31.271,0c0.721,0.16-0.038,4.114-1.157,5.152
			c-0.838,0.799-28.078,1.958-29.276-0.399C9.403,26.467,9.604,25.908,9.804,24.07z"/>
		<path fill="#FFFFFF" d="M25.499,22.633c9.546,0,17.295-0.479,17.295-1.038s-7.749-0.999-17.295-0.999
			c-9.503,0-17.293,0.44-17.293,0.999C8.205,22.154,15.996,22.633,25.499,22.633z"/>
	</g>
</g>
</svg>
