<?xml version="1.0" encoding="utf-8"?>
<!-- Generator: Adobe Illustrator 16.0.4, SVG Export Plug-In . SVG Version: 6.00 Build 0)  -->
<!DOCTYPE svg PUBLIC "-//W3C//DTD SVG 1.1//EN" "http://www.w3.org/Graphics/SVG/1.1/DTD/svg11.dtd">
<svg version="1.1" id="Layer_1" xmlns="http://www.w3.org/2000/svg" xmlns:xlink="http://www.w3.org/1999/xlink" x="0px" y="0px"
	 width="40.25px" height="30px" viewBox="5.522 2.223 40.25 30" enable-background="new 5.522 2.223 40.25 30" xml:space="preserve"
	>
<g>
	<path fill="#FFFFFF" d="M26.307,12.957l-18.435,0.37c-0.045-0.139-0.045-0.277-0.045-0.37c0-5.943,8.296-10.734,18.48-10.734
		c10.183,0,18.478,4.792,18.478,10.734H26.307z"/>
	<g>
		<g>
			<path fill="#FFFFFF" d="M5.65,19.434c2.352,0.708,3.646-0.809,4.591-1.916c0.69-0.808,1.149-1.299,1.712-1.299
				c0.58,0,1.705,0.505,3.757,2.911l0.074,0.086l0.093,0.062c3.089,2.102,5.242,0.193,6.814-1.203
				c1.021-0.905,1.903-1.687,2.881-1.608c0.86,0.07,1.879,0.821,3.028,2.231l0.058,0.072l0.074,0.059
				c2.798,2.197,5.033,0.306,6.665-1.074c1.086-0.919,2.11-1.787,3.146-1.639c0.943,0.135,2.014,1.105,3.186,2.882l0.061,0.089
				l0.081,0.073c0.572,0.514,1.247,0.753,1.951,0.688c0.735-0.064,1.449-0.473,1.95-1.12l-1.33-1.036
				c-0.217,0.279-0.498,0.453-0.771,0.478c-0.229,0.02-0.454-0.07-0.671-0.264l0.141,0.162c-1.492-2.258-2.876-3.409-4.357-3.622
				C37,14.19,35.571,15.4,34.309,16.467c-1.798,1.522-2.895,2.32-4.533,1.034l0.134,0.13c-1.471-1.806-2.845-2.736-4.2-2.846
				c-1.694-0.138-2.991,1.013-4.136,2.027c-1.751,1.553-2.836,2.37-4.747,1.07l0.167,0.15c-2.066-2.421-3.621-3.5-5.04-3.5
				c-1.381,0-2.238,1.003-2.997,1.89c-0.973,1.141-1.585,1.767-2.822,1.396L5.65,19.434z"/>
		</g>
		<path fill="#FFFFFF" d="M7.367,25.124c12.027,0,35.298-0.14,36.081,0c0.831,0.184-0.044,4.747-1.335,5.945
			c-0.967,0.921-32.396,2.258-33.779-0.461C6.905,27.888,7.136,27.244,7.367,25.124z"/>
		<path fill="#FFFFFF" d="M25.477,23.465c11.013,0,19.954-0.552,19.954-1.198c0-0.645-8.941-1.153-19.954-1.153
			c-10.966,0-19.954,0.509-19.954,1.153C5.522,22.913,14.511,23.465,25.477,23.465z"/>
	</g>
</g>
</svg>
