<svg width="150" height="44" viewBox="0 0 150 44" xmlns="http://www.w3.org/2000/svg"><title>Mojotech</title><g fill="none" fill-rule="evenodd"><g><path d="M37.795.125H12.6L0 22.053l12.596 21.935 25.2.012L50.39 22.063 37.795.125zM35.98 31.31h-5.986v-7.877l1.185-1.767-.07-.077-5.85 3.792-5.848-3.796-.07.072 1.185 1.775v7.877h-6.22V12.94h3.802l7.15 5.192 7.153-5.19h3.566V31.31z" fill="#E65200"/><path d="M58.517 16.513h3.913l.3.942c.598-.823 1.737-1.285 3.053-1.285 1.578 0 2.597.503 3.135 1.427.68-.845 1.857-1.427 3.294-1.427 2.836 0 3.773 1.547 3.773 4.72v6.942h-4.652v-6.93c0-.612-.28-.917-.837-.917-.44 0-.92.292-.92.916v6.932h-4.65v-6.93c0-.51-.28-.917-.84-.917-.623 0-.918.31-.918.916v6.932h-4.65v-11.32" fill="#0E1825"/><path d="M84.374 22.174c0-1.53-.43-2.347-1.543-2.347s-1.52.816-1.52 2.347c0 1.548.407 2.345 1.52 2.345 1.114 0 1.544-.798 1.544-2.346zm-7.712 0c0-4.336 2.796-6.004 6.31-6.004 3.533 0 6.028 1.668 6.028 6.004 0 4.354-2.835 6-6.33 6-3.53 0-6.008-1.646-6.008-6z" fill="#0E1825"/><path d="M102.815 22.108c0-1.526-.43-2.345-1.542-2.345-1.114 0-1.52.82-1.52 2.345 0 1.55.406 2.347 1.52 2.347 1.113 0 1.542-.797 1.542-2.347zm-7.71 0c0-4.333 2.796-6 6.31-6 3.53 0 6.027 1.667 6.027 6 0 4.357-2.835 6.002-6.328 6.002-3.533 0-6.01-1.645-6.01-6.002z" fill="#0E1825"/><path d="M89.718 13.774c0-1.198.99-1.973 2.314-1.973 1.346 0 2.357.776 2.357 1.974 0 1.22-1.012 1.957-2.358 1.957-1.325 0-2.314-.736-2.314-1.956zM87.802 31.36v-3.312c.32.22.718.34 1.117.34.518 0 .817-.218.817-.8V16.512h4.652v11.054c0 2.87-1.558 4.295-4.393 4.295-.997 0-1.897-.302-2.195-.503z" fill="#0E1825"/><path d="M108.94 24.08v-4.014h-1.237v-2.13l3.76-3.993h2.13v2.57h2.355v3.553h-2.355v3.41c0 .643.26.964.818.964.68 0 1.1-.26 1.418-.64v3.51c-.48.44-1.297.864-3.013.864-2.836 0-3.874-1.686-3.874-4.094" fill="#0E1825"/><path d="M123.88 20.79v-.082c0-.682-.53-1.432-1.545-1.432-1.057 0-1.495.828-1.516 1.513h3.06zm-7.654 1.384c0-4.276 2.816-6.004 5.91-6.004 3.036 0 5.59 1.172 5.59 5.66 0 .363-.107 1.314-.146 1.446h-6.56c.097.642.597 1.105 2.674 1.105 1.677 0 2.35-.167 3.05-.51v3.472c-.64.442-1.732.832-4.07.832-4.37 0-6.448-1.948-6.448-6z" fill="#0E1825"/><path d="M128.163 22.174c0-4.177 2.555-6.004 5.85-6.004 1.876 0 3.074.484 3.613.885v3.813c-.798-.52-1.537-.743-2.574-.743-1.48 0-2.118.664-2.118 2.067 0 1.387.66 2.026 2.118 2.026 1.037 0 1.797-.26 2.595-.762v3.755c-.54.442-1.816.964-3.574.964-3.534 0-5.91-1.788-5.91-6" fill="#0E1825"/><path d="M138.524 12.46h4.65v4.655c.6-.582 1.538-.945 2.837-.945 2.856 0 3.934 1.547 3.934 4.72v6.942h-4.652v-6.89c0-.413-.36-.957-1.057-.957-.5 0-1.06.35-1.06.956v6.892h-4.65V12.46" fill="#0E1825"/></g></g></svg>