<svg xmlns="http://www.w3.org/2000/svg"><symbol viewBox="-0.201 -0.625 16.402 16" id="github-mark"><title>github-mark</title><path fill-rule="evenodd" clip-rule="evenodd" fill="#fff" d="M8-.625c-4.528 0-8.2 3.67-8.2 8.203 0 3.623 2.35 6.696 5.61 7.782.41.075.558-.176.558-.396 0-.194-.007-.71-.01-1.396-2.282.497-2.764-1.098-2.764-1.098-.373-.948-.91-1.2-.91-1.2-.746-.507.057-.498.057-.498.825.06 1.256.846 1.256.846.732 1.253 1.92.893 2.388.68.073-.53.286-.89.52-1.097C4.684 11 2.77 10.294 2.77 7.15c0-.894.318-1.627.843-2.2-.084-.208-.366-1.042.08-2.17 0 0 .69-.22 2.256.84.653-.18 1.355-.272 2.053-.275.695.003 1.397.095 2.054.276 1.563-1.063 2.25-.843 2.25-.843.45 1.13.167 1.964.082 2.17.524.574.843 1.307.843 2.2 0 3.154-1.92 3.848-3.744 4.05.293.253.555.75.555 1.52 0 1.094-.01 1.98-.01 2.248 0 .222.148.476.562.396 3.257-1.085 5.604-4.158 5.604-7.78 0-4.533-3.67-8.205-8.2-8.205z"/></symbol><symbol viewBox="0 0 576 576" id="github-square"><title>github-square</title><path fill="currentColor" d="M139.542 433.5c-1.89 2.125-4.25 1.77-7.084-1.063-3.07-2.596-3.54-4.84-1.416-6.73 1.888-2.124 4.25-1.77 7.083 1.064 2.833 2.6 3.305 4.845 1.417 6.73zm-14.875-21.604c2.125 2.833 2.125 5.076 0 6.73-1.89 1.416-3.896.59-6.02-2.48-2.126-3.07-2.126-5.195 0-6.375 2.124-1.65 4.13-.94 6.02 2.13zm-21.605-21.25c-1.18 1.653-2.715 1.888-4.604.708-2.36-1.18-3.187-2.597-2.48-4.25.71-1.18 2.244-1.416 4.605-.708 2.362 1.18 3.188 2.597 2.48 4.25zm10.98 12.04c-1.417 1.655-3.305 1.3-5.667-1.06-2.125-2.598-2.362-4.488-.708-5.668 1.416-1.416 3.305-1.062 5.666 1.063 2.125 2.6 2.362 4.49.71 5.67zm45.687 39.668c-.95 2.834-3.19 3.542-6.73 2.125-4.016-.95-5.55-2.72-4.607-5.316.945-2.597 3.187-3.424 6.73-2.48 3.777 1.18 5.31 3.07 4.603 5.667zm22.31 1.77c0 2.598-1.89 3.897-5.668 3.897-4.013.476-6.02-.822-6.02-3.892 0-2.597 1.888-3.896 5.666-3.896 4.013-.472 6.02.826 6.02 3.896zm20.54-3.54c.472 2.36-1.18 4.013-4.958 4.958-3.778.945-5.903 0-6.375-2.834-.473-2.833 1.18-4.604 4.957-5.312 3.78-.472 5.904.59 6.375 3.187zM544 102v340c0 28.097-9.976 52.122-29.927 72.073C494.123 534.023 470.097 544 442 544h-79.333c-3.78 0-6.67-.118-8.677-.354-2.008-.237-4.31-.826-6.907-1.77-2.596-.946-4.486-2.657-5.666-5.136-1.18-2.48-1.77-5.727-1.77-9.74v-84.646c0-22.903-6.14-39.666-18.418-50.29 13.454-1.418 25.56-3.543 36.3-6.377 10.74-2.833 21.84-7.437 33.29-13.812 11.45-6.375 21.013-14.226 28.687-23.552 7.674-9.326 13.93-21.722 18.77-37.188 4.84-15.465 7.26-33.232 7.26-53.302 0-28.57-9.325-52.888-27.98-72.958 8.738-21.487 7.793-45.57-2.832-72.25-6.612-2.125-16.175-.826-28.688 3.896-12.514 4.726-23.375 9.92-32.584 15.587l-13.458 8.5c-21.958-6.138-44.625-9.208-68-9.208s-46.042 3.07-68 9.207c-3.778-2.597-8.795-5.784-15.052-9.562-6.258-3.78-16.115-8.323-29.573-13.636-13.457-5.313-23.61-6.907-30.457-4.78-10.39 26.68-11.216 50.76-2.48 72.25-18.653 20.07-27.98 44.386-27.98 72.956 0 20.07 2.42 37.78 7.262 53.125 4.84 15.347 11.037 27.743 18.593 37.188 7.555 9.445 17.06 17.354 28.51 23.73 11.45 6.374 22.55 10.978 33.292 13.812 10.742 2.83 22.843 4.956 36.302 6.373-9.445 8.5-15.23 20.66-17.355 36.48-4.96 2.36-10.27 4.13-15.938 5.31-5.67 1.18-12.398 1.772-20.19 1.772-7.79 0-15.523-2.54-23.197-7.615-7.675-5.074-14.227-12.454-19.657-22.134-4.486-7.555-10.21-13.695-17.177-18.417-6.967-4.72-12.81-7.558-17.53-8.5l-7.085-1.065c-4.96 0-8.384.53-10.27 1.594-1.89 1.062-2.48 2.42-1.773 4.072.708 1.654 1.77 3.306 3.188 4.96 1.417 1.652 2.95 3.07 4.605 4.25l2.48 1.77c5.193 2.36 10.33 6.846 15.404 13.458 5.074 6.614 8.793 12.634 11.154 18.065l3.542 8.145c3.07 8.97 8.263 16.23 15.583 21.78 7.32 5.55 15.23 9.09 23.73 10.626 8.5 1.534 16.704 2.36 24.613 2.48 7.91.116 14.46-.296 19.655-1.24l8.145-1.418c0 8.972.06 21.133.178 36.48.12 15.346.18 23.375.18 24.083 0 5.198-1.3 9.15-3.895 11.868-2.596 2.715-5.194 4.25-7.79 4.604-2.597.354-6.493.53-11.688.53H102c-28.097 0-52.122-9.975-72.073-29.926C9.977 494.124 0 470.096 0 442V102c0-28.097 9.976-52.122 29.927-72.073C49.877 9.977 73.903 0 102 0h340c28.097 0 52.122 9.976 72.073 29.927C534.023 49.877 544 73.903 544 102z"/></symbol><symbol viewBox="0 0 576 576" id="gitter-square"><title>gitter-square</title><path fill="currentColor" d="M514.108 29.892C494.133 9.917 470.05 0 442 0H102C73.95 0 49.867 9.917 29.892 29.892S0 73.95 0 102v340c0 28.05 9.917 52.133 29.892 72.108S73.95 544 102 544h340c28.05 0 52.133-9.917 72.108-29.892S544 470.192 544 442V102c0-28.05-9.917-52.133-29.892-72.108zM192 342h-32V114h32v228zm64 85h-32V160h32v267zm64 2h-32V160h32v269zm64-98h-32V160h32v171z"/></symbol><symbol viewBox="35.696 21.444 31.199 26" id="hamburger"><title>hamburger</title><g fill="#fff"><path d="M38.296 26.645h26c1.437 0 2.6-1.164 2.6-2.6 0-1.436-1.163-2.6-2.6-2.6h-26c-1.436 0-2.6 1.165-2.6 2.6s1.164 2.6 2.6 2.6zM64.296 31.844h-26c-1.436 0-2.6 1.165-2.6 2.6 0 1.437 1.164 2.6 2.6 2.6h26c1.437 0 2.6-1.164 2.6-2.6 0-1.435-1.164-2.6-2.6-2.6zM64.296 42.245h-26c-1.436 0-2.6 1.164-2.6 2.6 0 1.437 1.164 2.6 2.6 2.6h26c1.437 0 2.6-1.164 2.6-2.6 0-1.437-1.164-2.6-2.6-2.6z"/></g></symbol><symbol id="play"><title>play</title><path fill-rule="evenodd" clip-rule="evenodd" fill="currentColor" d="M84.15 26.4v6.35c0 2.833-.15 5.967-.45 9.4-.133 1.7-.267 3.117-.4 4.25l-.15.95c-.167.767-.367 1.517-.6 2.25-.667 2.367-1.533 4.083-2.6 5.15-1.367 1.4-2.967 2.383-4.8 2.95-.633.2-1.316.333-2.05.4-.767.1-1.3.167-1.6.2-4.9.367-11.283.617-19.15.75l-7.35.1h-2.95c-3.633-.033-7.55-.083-11.75-.15-8.433-.167-14.05-.383-16.85-.65-.067-.033-.667-.117-1.8-.25-.9-.133-1.683-.283-2.35-.45-2.066-.533-3.783-1.5-5.15-2.9-1.033-1.067-1.9-2.783-2.6-5.15-.233-.733-.417-1.483-.55-2.25l-.2-.95c-.133-1.133-.267-2.55-.4-4.25-.267-3.433-.4-6.567-.4-9.4V26.4c0-2.833.133-5.95.4-9.35l.4-4.25c.167-.966.417-2.05.75-3.25.7-2.333 1.567-4.033 2.6-5.1 1.367-1.434 2.967-2.434 4.8-3 .633-.167 1.333-.3 2.1-.4.4-.066.917-.133 1.55-.2C17.5.517 23.883.283 31.75.15c3.9-.1 7.333-.15 10.3-.15L45 .05c2.467 0 4.933.034 7.4.1 7.833.133 14.2.367 19.1.7.3.033.833.1 1.6.2.733.1 1.417.233 2.05.4 1.833.566 3.434 1.566 4.8 3 1.066 1.066 1.933 2.767 2.6 5.1.367 1.2.617 2.284.75 3.25l.4 4.25c.3 3.4.45 6.517.45 9.35zm-50.85 15L56 29.6 33.3 17.75V41.4z"/><path fill-rule="evenodd" clip-rule="evenodd" fill="#fff" d="M33.3 41.4V17.75L56 29.6z"/></symbol><symbol viewBox="0 0 576 576" id="twitter-square"><title>twitter-square</title><path fill="currentColor" d="M452.102 170.245c-13.14 5.933-27.41 9.89-42.667 12.01 15.965-9.467 26.984-23.17 32.777-41.256-15.258 8.9-31.08 14.973-47.33 18.08-14.41-15.54-32.353-23.31-53.97-23.31-20.485 0-38.003 7.206-52.414 21.757-14.41 14.552-21.758 31.93-21.758 52.416 0 6.78.566 12.432 1.696 16.953-30.376-1.696-58.915-9.326-85.476-22.89-26.56-13.56-49.166-31.928-67.815-54.816-6.78 11.73-10.173 24.3-10.173 37.44 0 26.846 10.738 47.47 32.212 61.88-11.02-.28-22.887-3.25-35.32-9.18v.706c0 17.66 5.934 33.343 17.66 47.19 11.727 13.844 26.28 22.32 43.516 25.57-6.783 1.837-12.858 2.826-18.085 2.826-3.108 0-7.63-.423-13.846-1.41 4.942 14.833 13.7 27.124 26.275 36.73 12.574 9.61 26.844 14.554 42.95 14.836-27.267 21.19-58.068 31.788-92.116 31.788-6.075 0-12.01-.283-17.66-1.13 34.755 22.04 72.62 33.06 113.59 33.06 26.42 0 51.144-4.24 74.173-12.575 23.03-8.335 42.81-19.496 59.34-33.623 16.53-14.13 30.657-30.095 42.525-48.32 11.865-18.225 20.766-37.298 26.56-57.22 5.79-19.92 8.62-39.7 8.62-59.48 0-4.238-.145-7.346-.286-9.606 14.694-10.596 27.126-23.312 37.016-38.43zm90.42-68.522V440.8c0 27.974-9.89 51.992-29.81 71.913-19.92 19.92-43.938 29.81-71.913 29.81H101.72c-27.974 0-51.99-9.89-71.913-29.81C9.89 492.793 0 468.773 0 440.8V101.723C0 73.75 9.89 49.733 29.81 29.81 49.732 9.89 73.75 0 101.723 0H440.8c27.974 0 51.992 9.89 71.912 29.81 19.92 19.922 29.81 43.94 29.81 71.913z"/></symbol><symbol viewBox="0 0 16 14" id="twitter"><title>twitter</title><path fill="currentColor" d="M16 1.657c-.59.28-1.223.47-1.885.557.677-.437 1.196-1.13 1.44-1.956-.633.406-1.337.7-2.083.86C12.874.428 12.022 0 11.078 0 9.264 0 7.794 1.582 7.794 3.536c0 .275.03.544.085.805C5.15 4.19 2.73 2.787 1.113.648.832 1.167.67 1.777.67 2.423c0 1.226.58 2.31 1.46 2.942-.54-.018-1.045-.178-1.487-.442v.046c0 1.71 1.13 3.14 2.633 3.463-.275.082-.566.125-.864.125-.212 0-.417-.023-.616-.064.416 1.403 1.628 2.426 3.065 2.453-1.12.946-2.534 1.512-4.073 1.512-.265 0-.525-.018-.783-.05 1.455 1 3.18 1.587 5.032 1.587 6.038 0 9.34-5.385 9.34-10.056 0-.15-.004-.304-.01-.456.64-.498 1.197-1.12 1.638-1.83H16z"/></symbol></svg>