<?xml version="1.0" encoding="utf-8"?>
<!-- Generator: Adobe Illustrator 16.0.4, SVG Export Plug-In . SVG Version: 6.00 Build 0)  -->
<!DOCTYPE svg PUBLIC "-//W3C//DTD SVG 1.1//EN" "http://www.w3.org/Graphics/SVG/1.1/DTD/svg11.dtd">
<svg version="1.1" id="Layer_1" xmlns="http://www.w3.org/2000/svg" xmlns:xlink="http://www.w3.org/1999/xlink" x="0px" y="0px"
	 width="15.834px" height="12.867px" viewBox="0 0 15.834 12.867" enable-background="new 0 0 15.834 12.867" xml:space="preserve">
<path fill="#D9DADB" d="M15.834,1.523c-0.583,0.258-1.209,0.433-1.865,0.512c0.67-0.402,1.185-1.039,1.427-1.798
	c-0.627,0.373-1.323,0.643-2.062,0.789C12.74,0.395,11.896,0,10.962,0C9.168,0,7.713,1.454,7.713,3.249
	c0,0.254,0.029,0.502,0.084,0.74C5.099,3.853,2.705,2.56,1.103,0.595c-0.28,0.48-0.44,1.038-0.44,1.633
	c0,1.127,0.574,2.122,1.445,2.704C1.575,4.915,1.074,4.768,0.636,4.525c0,0.014,0,0.028,0,0.042c0,1.573,1.12,2.886,2.606,3.185
	c-0.272,0.074-0.56,0.114-0.855,0.114c-0.209,0-0.413-0.021-0.611-0.058c0.413,1.29,1.613,2.229,3.035,2.255
	c-1.112,0.871-2.512,1.391-4.035,1.391c-0.262,0-0.521-0.016-0.775-0.045c1.438,0.922,3.146,1.459,4.979,1.459
	c5.975,0,9.242-4.95,9.242-9.243c0-0.14-0.003-0.28-0.009-0.42C14.847,2.747,15.398,2.175,15.834,1.523z"/>
</svg>
