<?xml version="1.0" encoding="utf-8"?>
<!-- Generator: Adobe Illustrator 16.0.4, SVG Export Plug-In . SVG Version: 6.00 Build 0)  -->
<!DOCTYPE svg PUBLIC "-//W3C//DTD SVG 1.1//EN" "http://www.w3.org/Graphics/SVG/1.1/DTD/svg11.dtd">
<svg version="1.1" id="Layer_1" xmlns="http://www.w3.org/2000/svg" xmlns:xlink="http://www.w3.org/1999/xlink" x="0px" y="0px"
	 width="18px" height="18px" viewBox="0 0 18 18" enable-background="new 0 0 18 18" xml:space="preserve">
<path fill="#8D8D8E" d="M14.129,5.32c-0.411,0.185-0.857,0.309-1.334,0.375c0.499-0.296,0.844-0.724,1.024-1.289
	c-0.478,0.278-0.972,0.468-1.479,0.565c-0.45-0.485-1.011-0.728-1.687-0.728c-0.64,0-1.188,0.225-1.638,0.68s-0.68,0.998-0.68,1.638
	c0,0.212,0.018,0.389,0.053,0.53C7.439,7.038,6.547,6.799,5.717,6.375c-0.83-0.424-1.536-0.998-2.119-1.713
	C3.386,5.029,3.28,5.422,3.28,5.832c0,0.839,0.335,1.484,1.007,1.934C3.943,7.757,3.572,7.665,3.183,7.479v0.022
	c0,0.552,0.186,1.042,0.552,1.475c0.366,0.433,0.821,0.698,1.36,0.8C4.883,9.832,4.693,9.863,4.53,9.863
	c-0.097,0-0.238-0.014-0.433-0.044c0.155,0.464,0.428,0.848,0.821,1.147c0.393,0.301,0.839,0.455,1.342,0.464
	c-0.852,0.662-1.815,0.993-2.879,0.993c-0.19,0-0.375-0.009-0.552-0.035c1.086,0.689,2.27,1.033,3.55,1.033
	c0.826,0,1.598-0.133,2.318-0.393c0.72-0.261,1.337-0.609,1.854-1.051s0.958-0.941,1.329-1.51c0.371-0.57,0.648-1.166,0.83-1.789
	s0.27-1.241,0.27-1.859c0-0.132-0.004-0.229-0.009-0.3C13.431,6.19,13.819,5.792,14.129,5.32L14.129,5.32z M16.953,3.179v10.597
	c0,0.874-0.309,1.625-0.931,2.247s-1.373,0.932-2.247,0.932H3.179c-0.874,0-1.625-0.31-2.247-0.932S0,14.649,0,13.775V3.179
	c0-0.874,0.309-1.625,0.932-2.247S2.305,0,3.179,0h10.597c0.874,0,1.625,0.309,2.247,0.932S16.953,2.305,16.953,3.179L16.953,3.179z
	"/>
</svg>
