<?xml version="1.0" encoding="utf-8"?>
<!DOCTYPE svg PUBLIC "-//W3C//DTD SVG 1.1//EN" "http://www.w3.org/Graphics/SVG/1.1/DTD/svg11.dtd">
<svg version="1.1" xmlns="http://www.w3.org/2000/svg" xmlns:xlink="http://www.w3.org/1999/xlink" width="18" height="18" viewBox="0 0 576 576">
<path class="svg-icon svg-icon-twitter" fill="#818285" d="M452.102266,170.24511 C438.962494,176.178433 424.693354,180.134327 409.435498,182.254479 C425.399726,172.788259 436.419346,159.083802 442.212015,140.999422 C426.95416,149.899924 411.130586,155.97597 394.882981,159.083802 C380.472152,143.54257 362.52946,135.772471 340.913217,135.772471 C320.427376,135.772471 302.908715,142.977886 288.497886,157.529369 C274.087057,172.081886 266.739954,189.458859 266.739954,209.945734 C266.739954,216.727118 267.305673,222.378099 268.436076,226.898677 C238.059985,225.203589 209.520669,217.574144 182.959817,204.011376 C156.398966,190.448608 133.794008,172.081886 115.144943,149.193551 C108.363559,160.920578 104.97235,173.494631 104.97235,186.633369 C104.97235,213.477597 115.709627,234.104091 137.184183,248.51492 C126.164563,248.232578 114.296882,245.265399 101.864517,239.332076 L101.864517,240.038449 C101.864517,257.698798 107.79784,273.380684 119.524867,287.226829 C131.250859,301.071939 145.803376,309.548411 163.039696,312.798966 C156.257278,314.634707 150.182266,315.624456 144.955316,315.624456 C141.847483,315.624456 137.325871,315.200426 131.109171,314.211711 C136.054814,329.045536 144.813627,341.337247 157.387681,350.944122 C169.961734,360.55203 184.231909,365.496639 200.337825,365.778981 C173.070601,386.971194 142.270479,397.567817 108.221871,397.567817 C102.146859,397.567817 96.2125019,397.285475 90.5615209,396.437414 C125.316502,418.477688 163.18035,429.497308 204.15203,429.497308 C230.572228,429.497308 255.296304,425.259072 278.325293,416.923255 C301.354281,408.587437 321.133749,397.426129 337.663696,383.298677 C354.193643,369.17019 368.322129,353.204928 380.18981,334.979894 C392.05749,316.754859 400.957992,297.681764 406.750662,277.760608 C412.543331,257.839452 415.368821,238.059985 415.368821,218.280517 C415.368821,214.042281 415.227133,210.934449 415.086479,208.673643 C429.77965,198.078053 442.212015,185.362312 452.102266,170.24511 L452.102266,170.24511 Z M542.522099,101.722829 L542.522099,440.800304 C542.522099,468.773901 532.632882,492.791605 512.711726,512.71276 C492.791605,532.632882 468.773901,542.523133 440.79927,542.523133 L101.722829,542.523133 C73.7492319,542.523133 49.7315285,532.632882 29.8103726,512.71276 C9.88921673,492.791605 0,468.773901 0,440.800304 L0,101.722829 C0,73.7492319 9.88921673,49.7315285 29.8103726,29.8103726 C49.7315285,9.89025095 73.7492319,0 101.722829,0 L440.79927,0 C468.773901,0 492.791605,9.89025095 512.711726,29.8103726 C532.632882,49.7315285 542.522099,73.7492319 542.522099,101.722829 L542.522099,101.722829 Z"></path>
</svg>
