<svg xmlns="http://www.w3.org/2000/svg" width="59.624" height="46.909" viewBox="23.181 14.707 59.624 46.909" enable-background="new 23.181 14.707 59.624 46.909"><path fill="#878787" d="M58.378 25.226l-6.832-4.216-2.26 3.663c-1.636-.537-3.32-.81-4.995-.833l-.983-4.162-7.812 1.848.978 4.13c-1.508.765-2.906 1.76-4.146 2.978l-3.6-2.22-4.215 6.83 3.6 2.22c-.532 1.654-.795 3.353-.803 5.043l-4.13.978 1.85 7.812 4.16-.984c.773 1.49 1.77 2.87 2.986 4.09l-2.26 3.665 6.83 4.216 2.288-3.703c1.624.513 3.286.765 4.944.772l1.01 4.266 7.812-1.85-1.018-4.3c1.46-.755 2.813-1.73 4.018-2.91l3.767 2.323 4.218-6.83-3.77-2.326c.52-1.606.78-3.255.802-4.897l4.3-1.02-1.853-7.81L59 33c-.75-1.48-1.723-2.852-2.91-4.072l2.288-3.704zm-9.485 18.347c-1.646 2.668-5.145 3.497-7.812 1.85-2.666-1.646-3.495-5.144-1.85-7.812 1.647-2.666 5.146-3.493 7.813-1.847s3.497 5.144 1.85 7.81zm28.987-27.54l-3.71-1.326-.71 1.988c-.838-.09-1.674-.05-2.48.112l-.897-1.897-3.56 1.688.892 1.88c-.646.52-1.215 1.142-1.686 1.852l-1.956-.698-1.324 3.71 1.955.698c-.088.848-.04 1.688.13 2.5l-1.882.893 1.687 3.56 1.897-.9c.52.637 1.14 1.198 1.85 1.66l-.71 1.99 3.707 1.324.718-2.012c.832.08 1.655.03 2.453-.136l.92 1.94 3.56-1.684-.93-1.96c.624-.51 1.175-1.116 1.632-1.808l2.045.73 1.324-3.708-2.046-.73c.085-.823.043-1.64-.114-2.432l1.96-.927-1.69-3.557-1.94.92c-.512-.633-1.118-1.193-1.812-1.657l.718-2.013h-.002zm-2.675 9.773c-.518 1.448-2.11 2.202-3.56 1.687-1.45-.518-2.204-2.11-1.687-3.56.516-1.45 2.11-2.204 3.56-1.687 1.448.517 2.205 2.11 1.687 3.56z"/></svg>