<svg xmlns="http://www.w3.org/2000/svg" width="58.942" height="58.398" viewBox="21.826 1.111 58.942 58.398" enable-background="new 21.826 1.111 58.942 58.398"><g fill="#878787"><path d="M67.338 7.605c-.7-.698-1.834-.698-2.533 0-.698.7-.698 1.833 0 2.533 2.853 2.85 4.422 6.64 4.422 10.67s-1.57 7.822-4.422 10.672c-.35.35-.523.808-.523 1.266 0 .46.174.917.523 1.266.7.7 1.834.7 2.533 0 3.526-3.526 5.47-8.217 5.47-13.204 0-4.99-1.944-9.676-5.47-13.203zM72.824 1.636c-.697-.7-1.833-.7-2.53 0-.7.7-.7 1.833 0 2.53 4.444 4.445 6.89 10.356 6.89 16.643 0 6.284-2.445 12.194-6.89 16.64-.352.35-.526.808-.526 1.266s.175.917.525 1.267c.698.697 1.834.697 2.533 0 5.12-5.122 7.94-11.93 7.94-19.174s-2.82-14.052-7.942-19.174zM61.853 13.97c-.7-.698-1.833-.698-2.532 0-.697.702-.698 1.834.002 2.534 1.255 1.256 1.946 2.926 1.946 4.703 0 1.775-.69 3.446-1.946 4.702-.35.35-.524.81-.524 1.267s.174.915.523 1.265c.7.7 1.833.7 2.533 0 1.933-1.933 2.998-4.503 2.998-7.235 0-2.734-1.065-5.303-2.997-7.236zM33.365 20.81c0-4.033 1.57-7.823 4.42-10.672.7-.7.7-1.833 0-2.533-.7-.698-1.832-.698-2.533 0-3.526 3.528-5.47 8.215-5.47 13.204 0 4.985 1.944 9.676 5.47 13.203.7.7 1.834.7 2.534 0 .35-.35.524-.807.524-1.266 0-.458-.176-.916-.524-1.266-2.85-2.85-4.42-6.64-4.42-10.67zM25.407 20.81c0-6.288 2.448-12.197 6.893-16.643.7-.698.7-1.832 0-2.53-.7-.7-1.833-.7-2.532 0-5.122 5.12-7.942 11.93-7.942 19.172 0 7.242 2.82 14.05 7.942 19.173.7.697 1.833.697 2.532 0 .35-.35.524-.81.524-1.267s-.175-.917-.524-1.266c-4.445-4.446-6.893-10.356-6.893-16.64zM43.272 13.97c-.7-.698-1.833-.698-2.532 0-1.934 1.934-2.998 4.503-2.998 7.236 0 2.733 1.064 5.302 2.998 7.236.7.7 1.833.7 2.532 0 .35-.35.523-.808.523-1.265 0-.458-.175-.918-.524-1.268-1.254-1.257-1.946-2.928-1.946-4.703 0-1.776.69-3.447 1.947-4.703.7-.7.7-1.832.002-2.533zM51.54 16.33c-2.813 0-5.102 2.286-5.102 5.1 0 1.843.987 3.455 2.457 4.35l-.647 33.73 6.582-.007-.648-33.723c1.47-.896 2.455-2.508 2.455-4.352 0-2.81-2.286-5.1-5.098-5.1z"/></g></svg>