<svg xmlns="http://www.w3.org/2000/svg" width="18" height="18" viewBox="0 0 576 576"><path fill="currentColor" d="M139.542 433.5c-1.89 2.125-4.25 1.77-7.084-1.063-3.07-2.596-3.54-4.84-1.416-6.73 1.888-2.124 4.25-1.77 7.083 1.064 2.833 2.6 3.305 4.845 1.417 6.73zm-14.875-21.604c2.125 2.833 2.125 5.076 0 6.73-1.89 1.416-3.896.59-6.02-2.48-2.126-3.07-2.126-5.195 0-6.375 2.124-1.65 4.13-.94 6.02 2.13zm-21.605-21.25c-1.18 1.653-2.715 1.888-4.604.708-2.36-1.18-3.187-2.597-2.48-4.25.71-1.18 2.244-1.416 4.605-.708 2.362 1.18 3.188 2.597 2.48 4.25zm10.98 12.04c-1.417 1.655-3.305 1.3-5.667-1.06-2.125-2.598-2.362-4.488-.708-5.668 1.416-1.416 3.305-1.062 5.666 1.063 2.125 2.6 2.362 4.49.71 5.67zm45.687 39.668c-.95 2.834-3.19 3.542-6.73 2.125-4.016-.95-5.55-2.72-4.607-5.316.945-2.597 3.187-3.424 6.73-2.48 3.777 1.18 5.31 3.07 4.603 5.667zm22.31 1.77c0 2.598-1.89 3.897-5.668 3.897-4.013.476-6.02-.822-6.02-3.892 0-2.597 1.888-3.896 5.666-3.896 4.013-.472 6.02.826 6.02 3.896zm20.54-3.54c.472 2.36-1.18 4.013-4.958 4.958-3.778.945-5.903 0-6.375-2.834-.473-2.833 1.18-4.604 4.957-5.312 3.78-.472 5.904.59 6.375 3.187zM544 102v340c0 28.097-9.976 52.122-29.927 72.073C494.123 534.023 470.097 544 442 544h-79.333c-3.78 0-6.67-.118-8.677-.354-2.008-.237-4.31-.826-6.907-1.77-2.596-.946-4.486-2.657-5.666-5.136-1.18-2.48-1.77-5.727-1.77-9.74v-84.646c0-22.903-6.14-39.666-18.418-50.29 13.454-1.418 25.56-3.543 36.3-6.377 10.74-2.833 21.84-7.437 33.29-13.812 11.45-6.375 21.013-14.226 28.687-23.552 7.674-9.326 13.93-21.722 18.77-37.188 4.84-15.465 7.26-33.232 7.26-53.302 0-28.57-9.325-52.888-27.98-72.958 8.738-21.487 7.793-45.57-2.832-72.25-6.612-2.125-16.175-.826-28.688 3.896-12.514 4.726-23.375 9.92-32.584 15.587l-13.458 8.5c-21.958-6.138-44.625-9.208-68-9.208s-46.042 3.07-68 9.207c-3.778-2.597-8.795-5.784-15.052-9.562-6.258-3.78-16.115-8.323-29.573-13.636-13.457-5.313-23.61-6.907-30.457-4.78-10.39 26.68-11.216 50.76-2.48 72.25-18.653 20.07-27.98 44.386-27.98 72.956 0 20.07 2.42 37.78 7.262 53.125 4.84 15.347 11.037 27.743 18.593 37.188 7.555 9.445 17.06 17.354 28.51 23.73 11.45 6.374 22.55 10.978 33.292 13.812 10.742 2.83 22.843 4.956 36.302 6.373-9.445 8.5-15.23 20.66-17.355 36.48-4.96 2.36-10.27 4.13-15.938 5.31-5.67 1.18-12.398 1.772-20.19 1.772-7.79 0-15.523-2.54-23.197-7.615-7.675-5.074-14.227-12.454-19.657-22.134-4.486-7.555-10.21-13.695-17.177-18.417-6.967-4.72-12.81-7.558-17.53-8.5l-7.085-1.065c-4.96 0-8.384.53-10.27 1.594-1.89 1.062-2.48 2.42-1.773 4.072.708 1.654 1.77 3.306 3.188 4.96 1.417 1.652 2.95 3.07 4.605 4.25l2.48 1.77c5.193 2.36 10.33 6.846 15.404 13.458 5.074 6.614 8.793 12.634 11.154 18.065l3.542 8.145c3.07 8.97 8.263 16.23 15.583 21.78 7.32 5.55 15.23 9.09 23.73 10.626 8.5 1.534 16.704 2.36 24.613 2.48 7.91.116 14.46-.296 19.655-1.24l8.145-1.418c0 8.972.06 21.133.178 36.48.12 15.346.18 23.375.18 24.083 0 5.198-1.3 9.15-3.895 11.868-2.596 2.715-5.194 4.25-7.79 4.604-2.597.354-6.493.53-11.688.53H102c-28.097 0-52.122-9.975-72.073-29.926C9.977 494.124 0 470.096 0 442V102c0-28.097 9.976-52.122 29.927-72.073C49.877 9.977 73.903 0 102 0h340c28.097 0 52.122 9.976 72.073 29.927C534.023 49.877 544 73.903 544 102z"/></svg>