<svg xmlns="http://www.w3.org/2000/svg" width="16.402" height="16" viewBox="-0.201 -0.625 16.402 16" enable-background="new -0.201 -0.625 16.402 16"><path fill-rule="evenodd" clip-rule="evenodd" fill="#fff" d="M8-.625c-4.528 0-8.2 3.67-8.2 8.203 0 3.623 2.35 6.696 5.61 7.782.41.075.558-.176.558-.396 0-.194-.007-.71-.01-1.396-2.282.497-2.764-1.098-2.764-1.098-.373-.948-.91-1.2-.91-1.2-.746-.507.057-.498.057-.498.825.06 1.256.846 1.256.846.732 1.253 1.92.893 2.388.68.073-.53.286-.89.52-1.097C4.684 11 2.77 10.294 2.77 7.15c0-.894.318-1.627.843-2.2-.084-.208-.366-1.042.08-2.17 0 0 .69-.22 2.256.84.653-.18 1.355-.272 2.053-.275.695.003 1.397.095 2.054.276 1.563-1.063 2.25-.843 2.25-.843.45 1.13.167 1.964.082 2.17.524.574.843 1.307.843 2.2 0 3.154-1.92 3.848-3.744 4.05.293.253.555.75.555 1.52 0 1.094-.01 1.98-.01 2.248 0 .222.148.476.562.396 3.257-1.085 5.604-4.158 5.604-7.78 0-4.533-3.67-8.205-8.2-8.205z"/></svg>