<svg xmlns="http://www.w3.org/2000/svg" width="31.199" height="26" viewBox="35.696 21.444 31.199 26" enable-background="new 35.696 21.444 31.199 26"><g fill="#fff"><path d="M38.296 26.645h26c1.437 0 2.6-1.164 2.6-2.6 0-1.436-1.163-2.6-2.6-2.6h-26c-1.436 0-2.6 1.165-2.6 2.6s1.164 2.6 2.6 2.6zM64.296 31.844h-26c-1.436 0-2.6 1.165-2.6 2.6 0 1.437 1.164 2.6 2.6 2.6h26c1.437 0 2.6-1.164 2.6-2.6 0-1.435-1.164-2.6-2.6-2.6zM64.296 42.245h-26c-1.436 0-2.6 1.164-2.6 2.6 0 1.437 1.164 2.6 2.6 2.6h26c1.437 0 2.6-1.164 2.6-2.6 0-1.437-1.164-2.6-2.6-2.6z"/></g></svg>