<svg xmlns="http://www.w3.org/2000/svg" width="35px" height="26px" viewBox="8.206 4.223 34.883 26" enable-background="new 8.206 4.223 34.883 26"><path fill="currentColor" d="M26.22 13.526l-15.978.32c-.04-.12-.04-.24-.04-.32 0-5.15 7.19-9.303 16.017-9.303s16.015 4.153 16.015 9.303H26.22zM8.316 19.14c2.038.613 3.16-.7 3.98-1.66.597-.7.995-1.127 1.483-1.127.5 0 1.477.438 3.255 2.523l.064.074.08.054c2.676 1.822 4.542.167 5.905-1.042.885-.785 1.65-1.462 2.497-1.395.745.062 1.63.712 2.624 1.935l.05.062.065.052c2.425 1.903 4.363.265 5.776-.932.94-.796 1.83-1.55 2.728-1.42.817.117 1.745.957 2.76 2.498l.054.077.07.062c.496.444 1.08.652 1.69.596.638-.056 1.257-.41 1.69-.97l-1.153-.9c-.188.243-.432.394-.667.416-.2.017-.394-.062-.582-.23l.122.142C39.515 16 38.316 15 37.033 14.816c-1.547-.222-2.786.827-3.88 1.75-1.557 1.32-2.508 2.012-3.93.897l.118.112c-1.273-1.564-2.465-2.37-3.64-2.466-1.468-.12-2.592.876-3.584 1.756-1.518 1.346-2.458 2.054-4.114.927l.145.13c-1.79-2.098-3.138-3.033-4.368-3.033-1.198 0-1.94.87-2.598 1.637-.844.99-1.374 1.532-2.446 1.21l-.42 1.402zM9.804 24.07c10.423 0 30.592-.12 31.27 0 .722.16-.037 4.114-1.156 5.152-.838.8-28.078 1.958-29.276-.4-1.24-2.355-1.038-2.914-.838-4.752zM25.5 22.633c9.545 0 17.294-.48 17.294-1.038s-7.75-1-17.295-1c-9.504 0-17.294.44-17.294 1s7.79 1.038 17.293 1.038z"/></svg>