<svg xmlns="http://www.w3.org/2000/svg" width="71.589" height="50.325" viewBox="-3.333 4.375 71.589 50.325" enable-background="new -3.333 4.375 71.589 50.325"><path fill="#878787" stroke="#878787" stroke-miterlimit="10" d="M44.163 54.2H-1.833c-.552 0-1-.558-1-1.235V6.108c0-.678.448-1.233 1-1.233h45.996c.55 0 1 .555 1 1.233v46.857c0 .678-.45 1.234-1 1.235zM-.833 51.73h43.997V7.342H-.833v44.39-.002zm43.77-34.64H-.614c-.547 0-.99-.446-.99-.99s.442-.99.99-.99h43.548c.543 0 .986.444.986.99s-.44.99-.984.99z"/><path fill="#E24747" d="M5.703 11.484c0 .873-.707 1.582-1.58 1.582s-1.582-.708-1.582-1.582.71-1.58 1.583-1.58 1.58.706 1.58 1.58z"/><path fill="#FDBD41" d="M12.026 11.484c0 .873-.707 1.582-1.58 1.582-.873 0-1.582-.708-1.582-1.582s.707-1.58 1.58-1.58 1.582.706 1.582 1.58z"/><path fill="#35CB4B" d="M18.35 11.484c0 .873-.708 1.582-1.58 1.582s-1.582-.708-1.582-1.582.708-1.58 1.58-1.58c.875 0 1.582.706 1.582 1.58z"/><circle fill="#fff" cx="40.927" cy="26.855" r="13.264"/><path fill="#878787" d="M53.973 34.996c1.48-2.39 2.342-5.16 2.342-8.17 0-8.552-6.978-15.527-15.526-15.527-8.554 0-15.53 6.974-15.53 15.525 0 8.55 6.976 15.526 15.53 15.526 2.96 0 5.73-.858 8.12-2.292l13.233 13.188c.717.717 1.623 1.05 2.53 1.05.908 0 1.815-.333 2.533-1.05.668-.67 1.05-1.577 1.05-2.532 0-.956-.382-1.86-1.05-2.53L53.973 34.997zm-13.186 4.968c-7.263 0-13.14-5.876-13.14-13.14 0-7.262 5.877-13.138 13.14-13.138 7.262 0 13.137 5.876 13.137 13.14 0 7.262-5.876 13.138-13.137 13.138zm10.08-1.337c.62-.525 1.193-1.1 1.672-1.672l1.77 1.77-1.676 1.672-1.767-1.77zm2.627 2.627l1.674-1.672 8.742 8.695-1.674 1.673-8.742-8.696zm12.04 10.32c-.478.48-1.24.48-1.673 0l-.765-.766 1.674-1.673.765.767c.236.238.334.522.334.86 0 .287-.145.574-.336.812zM40.787 37.002c-5.59 0-10.178-4.54-10.178-10.177 0-.334-.29-.62-.623-.62s-.62.286-.62.62c0 6.26 5.11 11.37 11.37 11.37.333 0 .62-.286.62-.62s-.237-.573-.57-.573z"/></svg>