<svg xmlns="http://www.w3.org/2000/svg" width="66.428" height="39.821" viewBox="21.668 8.52 66.428 39.821" enable-background="new 21.668 8.52 66.428 39.821"><path fill="#878787" d="M73.338 27.716c-.005-.226-.007-.452-.012-.68h-.03l-1.48-14.814-3.63 2.593C63.667 10.89 57.74 8.52 51.297 8.52c-11.924 0-22 8.073-24.96 19.037-2.74 1.11-4.668 3.777-4.668 6.89 0 4.073 3.333 7.407 7.408 7.407h.222v.014c.014 0 .02-.008.03-.008.074 0 .146.004.218.007.308-.035.6-.11.9-.19.013-.003.024 0 .037-.002 3.478-.65 6-3.65 6-7.23 0-2.367-1.11-4.44-2.74-5.775 2.37-7.407 9.332-12.74 17.555-12.74 4 0 7.63 1.258 10.666 3.407l-2.74 2L72.19 27.19c-.023.004-.044.01-.066.016.416.117.815.308 1.214.51zM29.074 38.89c-2.445 0-4.445-2-4.445-4.444S26.63 30 29.07 30s4.444 2 4.444 4.444c0 2.447-2 4.445-4.442 4.447z"/><text transform="translate(59 42.946)" fill="#878787" font-family="'Arial-Black'" font-size="17.593">&lt; &gt;</text></svg>