<svg><path fill-rule="evenodd" clip-rule="evenodd" fill="currentColor" d="M84.15 26.4v6.35c0 2.833-.15 5.967-.45 9.4-.133 1.7-.267 3.117-.4 4.25l-.15.95c-.167.767-.367 1.517-.6 2.25-.667 2.367-1.533 4.083-2.6 5.15-1.367 1.4-2.967 2.383-4.8 2.95-.633.2-1.316.333-2.05.4-.767.1-1.3.167-1.6.2-4.9.367-11.283.617-19.15.75l-7.35.1h-2.95c-3.633-.033-7.55-.083-11.75-.15-8.433-.167-14.05-.383-16.85-.65-.067-.033-.667-.117-1.8-.25-.9-.133-1.683-.283-2.35-.45-2.066-.533-3.783-1.5-5.15-2.9-1.033-1.067-1.9-2.783-2.6-5.15-.233-.733-.417-1.483-.55-2.25l-.2-.95c-.133-1.133-.267-2.55-.4-4.25-.267-3.433-.4-6.567-.4-9.4V26.4c0-2.833.133-5.95.4-9.35l.4-4.25c.167-.966.417-2.05.75-3.25.7-2.333 1.567-4.033 2.6-5.1 1.367-1.434 2.967-2.434 4.8-3 .633-.167 1.333-.3 2.1-.4.4-.066.917-.133 1.55-.2C17.5.517 23.883.283 31.75.15c3.9-.1 7.333-.15 10.3-.15L45 .05c2.467 0 4.933.034 7.4.1 7.833.133 14.2.367 19.1.7.3.033.833.1 1.6.2.733.1 1.417.233 2.05.4 1.833.566 3.434 1.566 4.8 3 1.066 1.066 1.933 2.767 2.6 5.1.367 1.2.617 2.284.75 3.25l.4 4.25c.3 3.4.45 6.517.45 9.35zm-50.85 15L56 29.6 33.3 17.75V41.4z"/><path fill-rule="evenodd" clip-rule="evenodd" fill="#fff" d="M33.3 41.4V17.75L56 29.6z"/></svg>