<?xml version="1.0" encoding="utf-8"?>
<!-- Generator: Adobe Illustrator 19.1.0, SVG Export Plug-In . SVG Version: 6.00 Build 0)  -->
<svg version="1.1" id="Layer_1" xmlns="http://www.w3.org/2000/svg" xmlns:xlink="http://www.w3.org/1999/xlink" x="0px" y="0px"
	 viewBox="93.1 -89.5 89.9 90" style="enable-background:new 93.1 -89.5 89.9 90;" xml:space="preserve">
<style type="text/css">
	.st0{fill:#FFFFFF;}
</style>
<path class="st0" d="M180.9-11.8l-21.4-21.4c3.9-5.9,6-12.8,6-20.1c0-9.7-3.8-18.8-10.6-25.6c-6.8-6.8-15.9-10.6-25.6-10.6
	s-18.8,3.8-25.6,10.6c-14.1,14.1-14.1,37.2,0,51.3c6.9,6.9,16,10.6,25.6,10.6c7.2,0,14.2-2.1,20.1-6l21.4,21.4
	c2.8,2.8,7.4,2.8,10.2,0C183.7-4.4,183.7-9,180.9-11.8z M112.2-36.1c-9.4-9.4-9.4-24.8,0-34.2c4.6-4.6,10.6-7.1,17.1-7.1
	c6.5,0,12.5,2.5,17.1,7.1c4.6,4.6,7.1,10.6,7.1,17.1s-2.5,12.5-7.1,17.1c-4.6,4.6-10.6,7.1-17.1,7.1S116.7-31.6,112.2-36.1z"/>
</svg>
