<svg xmlns="http://www.w3.org/2000/svg" width="18" height="18" viewBox="0 0 576 576"><path d="M452.102 170.245c-13.14 5.933-27.41 9.89-42.667 12.01 15.965-9.467 26.984-23.17 32.777-41.256-15.258 8.9-31.08 14.974-47.33 18.082-14.41-15.54-32.353-23.312-53.97-23.312-20.485 0-38.003 7.207-52.414 21.758-14.41 14.552-21.758 31.93-21.758 52.416 0 6.78.566 12.432 1.696 16.953-30.376-1.696-58.915-9.326-85.476-22.89-26.56-13.56-49.166-31.928-67.815-54.816-6.78 11.73-10.173 24.3-10.173 37.44 0 26.846 10.738 47.47 32.212 61.88-11.02-.28-22.887-3.25-35.32-9.18v.706c0 17.66 5.934 33.343 17.66 47.19 11.727 13.844 26.28 22.32 43.516 25.57-6.783 1.837-12.858 2.826-18.085 2.826-3.108 0-7.63-.423-13.846-1.41 4.943 14.833 13.702 27.124 26.276 36.73 12.574 9.61 26.844 14.554 42.95 14.836-27.267 21.19-58.068 31.788-92.116 31.788-6.074 0-12.01-.283-17.66-1.13 34.756 22.04 72.62 33.06 113.59 33.06 26.42 0 51.145-4.24 74.174-12.575 23.03-8.336 42.81-19.497 59.34-33.624 16.53-14.13 30.657-30.095 42.525-48.32 11.865-18.225 20.766-37.298 26.56-57.22 5.79-19.92 8.62-39.7 8.62-59.48 0-4.238-.145-7.346-.286-9.606 14.694-10.597 27.126-23.313 37.016-38.43zm90.42-68.522V440.8c0 27.974-9.89 51.992-29.81 71.913-19.92 19.92-43.938 29.81-71.913 29.81H101.72c-27.974 0-51.99-9.89-71.913-29.81C9.89 492.793 0 468.773 0 440.8V101.723C0 73.75 9.89 49.733 29.81 29.81 49.732 9.89 73.75 0 101.723 0H440.8c27.974 0 51.992 9.89 71.912 29.81 19.92 19.922 29.81 43.94 29.81 71.913z"/></svg>