<svg xmlns="http://www.w3.org/2000/svg" width="16" height="14" viewBox="0 0 16 14"><path fill="currentColor" d="M16 1.657c-.59.28-1.223.47-1.885.557.677-.437 1.196-1.13 1.44-1.956-.633.406-1.337.7-2.083.86C12.874.428 12.022 0 11.078 0 9.264 0 7.794 1.582 7.794 3.536c0 .275.03.544.085.805C5.15 4.19 2.73 2.787 1.113.648.832 1.167.67 1.777.67 2.423c0 1.226.58 2.31 1.46 2.942-.54-.018-1.045-.178-1.487-.442v.046c0 1.71 1.13 3.14 2.633 3.463-.275.082-.566.125-.864.125-.212 0-.417-.023-.616-.064.416 1.403 1.628 2.426 3.065 2.453-1.12.946-2.534 1.512-4.073 1.512-.265 0-.525-.018-.783-.05 1.455 1 3.18 1.587 5.032 1.587 6.038 0 9.34-5.385 9.34-10.056 0-.15-.004-.304-.01-.456.64-.498 1.197-1.12 1.638-1.83H16z"/></svg>