<svg xmlns="http://www.w3.org/2000/svg" width="73.671" height="32.11" viewBox="14.462 18.388 73.671 32.11" enable-background="new 14.462 18.388 73.671 32.11"><path fill="#878787" d="M51.297 18.388c-15.576 0-28.087 7.467-36.835 18.983 1.056 1.39 2.188 4.01 3.386 5.277 6.478-8.16 14.174-14.02 24.427-16.22.276-.038.558-.06.845-.06 3.493 0 6.326 2.832 6.326 6.323 0 3.493-2.833 6.324-6.326 6.324-2.57 0-4.777-1.535-5.768-3.735-.035.4-.056.806-.056 1.216 0 7.73 6.268 14 14 14S65.3 44.226 65.3 36.5c0-3.852-1.557-7.335-4.07-9.866 9.876 2.34 17.232 8.094 23.518 16.012 1.198-1.266 2.33-3.884 3.387-5.274-8.752-11.515-21.26-18.982-36.838-18.982v-.002z"/></svg>