<svg xmlns="http://www.w3.org/2000/svg" width="100.001" height="66.701" viewBox="0 16.65 100.001 66.701" enable-background="new 0 16.65 100.001 66.701"><path fill="#878787" d="M95.128 58.375H89.54v-8.32H52.086V41.83h5.617c2.697 0 4.895-2.192 4.895-4.887V21.54c0-2.7-2.195-4.89-4.895-4.89H42.3c-2.698 0-4.887 2.19-4.887 4.89v15.4c0 2.694 2.19 4.888 4.887 4.888h5.62v8.223H10.46v8.32H4.88C2.187 58.37 0 60.55 0 63.238v15.248c0 2.68 2.187 4.863 4.88 4.863h15.323c2.688 0 4.88-2.18 4.88-4.862v-15.25c0-2.684-2.192-4.863-4.88-4.863h-5.58v-4.16H47.92v4.164h-5.527c-2.694 0-4.88 2.18-4.88 4.865v15.246c0 2.68 2.186 4.863 4.88 4.863h15.324c2.686 0 4.88-2.18 4.88-4.86V63.24c0-2.685-2.194-4.865-4.88-4.865h-5.63V54.21h33.296v4.164h-5.585c-2.687 0-4.877 2.18-4.877 4.865v15.245c0 2.68 2.19 4.863 4.88 4.863h15.33c2.69 0 4.87-2.18 4.87-4.862v-15.25c0-2.683-2.184-4.864-4.87-4.864l-.002.003zM41.57 36.945V21.537c0-.398.337-.73.73-.73h15.403c.393 0 .73.333.73.73V36.94c0 .39-.338.724-.73.724H42.3c-.393 0-.73-.332-.73-.723v.004zM20.918 63.237v15.248c0 .38-.326.7-.714.7H4.88c-.388 0-.717-.32-.717-.7v-15.25c0-.38.33-.7.718-.7h15.325c.388 0 .714.32.714.7l-.002.002zm37.518 0v15.248c0 .38-.328.7-.718.7H42.393c-.39 0-.712-.32-.712-.7v-15.25c0-.38.327-.7.715-.7H57.72c.388 0 .716.32.716.7v.002zM95.84 78.485c0 .38-.33.7-.712.7h-15.33c-.385 0-.71-.32-.71-.7V63.24c0-.383.325-.703.71-.703h15.33c.382 0 .712.32.712.703v15.245z"/></svg>